<mxfile>
    <diagram id="x4c0Cf48TiZZmZqWTB6B" name="Page-1">
        <mxGraphModel dx="873" dy="568" grid="1" gridSize="10" guides="1" tooltips="1" connect="1" arrows="1" fold="1" page="1" pageScale="1" pageWidth="827" pageHeight="1169" math="0" shadow="0">
            <root>
                <mxCell id="0"/>
                <mxCell id="1" parent="0"/>
                <mxCell id="17" value="Leer/Responder" style="edgeStyle=orthogonalEdgeStyle;rounded=0;orthogonalLoop=1;jettySize=auto;html=1;entryX=0.5;entryY=1;entryDx=0;entryDy=0;" edge="1" parent="1" source="7" target="11">
                    <mxGeometry relative="1" as="geometry"/>
                </mxCell>
                <mxCell id="7" value="Metres&lt;br&gt;&lt;br&gt;" style="rounded=1;whiteSpace=wrap;html=1;" vertex="1" parent="1">
                    <mxGeometry x="360" y="440" width="120" height="60" as="geometry"/>
                </mxCell>
                <mxCell id="19" style="edgeStyle=orthogonalEdgeStyle;rounded=0;orthogonalLoop=1;jettySize=auto;html=1;exitX=0.5;exitY=1;exitDx=0;exitDy=0;entryX=0;entryY=0.5;entryDx=0;entryDy=0;" edge="1" parent="1" source="8" target="7">
                    <mxGeometry relative="1" as="geometry"/>
                </mxCell>
                <mxCell id="28" value="Leer/Responder" style="edgeLabel;html=1;align=center;verticalAlign=middle;resizable=0;points=[];" vertex="1" connectable="0" parent="19">
                    <mxGeometry x="-0.5647" y="3" relative="1" as="geometry">
                        <mxPoint as="offset"/>
                    </mxGeometry>
                </mxCell>
                <mxCell id="8" value="Chat mesa 1" style="ellipse;whiteSpace=wrap;html=1;aspect=fixed;fillColor=#006600;" vertex="1" parent="1">
                    <mxGeometry x="270" y="270" width="80" height="80" as="geometry"/>
                </mxCell>
                <mxCell id="11" value="Chat mesa 2" style="ellipse;whiteSpace=wrap;html=1;aspect=fixed;fillColor=#006600;" vertex="1" parent="1">
                    <mxGeometry x="380" y="270" width="80" height="80" as="geometry"/>
                </mxCell>
                <mxCell id="12" value="Chat mesa 3.." style="ellipse;whiteSpace=wrap;html=1;aspect=fixed;fillColor=#FFB521;" vertex="1" parent="1">
                    <mxGeometry x="490" y="270" width="80" height="80" as="geometry"/>
                </mxCell>
                <mxCell id="13" value="&lt;br&gt;" style="shape=umlActor;verticalLabelPosition=bottom;verticalAlign=top;html=1;outlineConnect=0;" vertex="1" parent="1">
                    <mxGeometry x="380" y="450" width="20" height="50" as="geometry"/>
                </mxCell>
                <mxCell id="14" value="" style="shape=umlActor;verticalLabelPosition=bottom;verticalAlign=top;html=1;outlineConnect=0;" vertex="1" parent="1">
                    <mxGeometry x="440" y="450" width="20" height="50" as="geometry"/>
                </mxCell>
                <mxCell id="23" value="Leer/Responder" style="edgeStyle=orthogonalEdgeStyle;rounded=0;orthogonalLoop=1;jettySize=auto;html=1;entryX=0.5;entryY=0;entryDx=0;entryDy=0;" edge="1" parent="1" source="20" target="8">
                    <mxGeometry relative="1" as="geometry"/>
                </mxCell>
                <mxCell id="20" value="Cliente 1&lt;br&gt;" style="shape=umlActor;verticalLabelPosition=bottom;verticalAlign=top;html=1;outlineConnect=0;" vertex="1" parent="1">
                    <mxGeometry x="295" y="100" width="30" height="60" as="geometry"/>
                </mxCell>
                <mxCell id="24" value="Leer/Responder" style="edgeStyle=orthogonalEdgeStyle;rounded=0;orthogonalLoop=1;jettySize=auto;html=1;entryX=0.5;entryY=0;entryDx=0;entryDy=0;" edge="1" parent="1" source="21" target="11">
                    <mxGeometry relative="1" as="geometry"/>
                </mxCell>
                <mxCell id="21" value="Cliente 2&lt;br&gt;" style="shape=umlActor;verticalLabelPosition=bottom;verticalAlign=top;html=1;outlineConnect=0;" vertex="1" parent="1">
                    <mxGeometry x="405" y="80" width="30" height="60" as="geometry"/>
                </mxCell>
                <mxCell id="26" value="Como la mesa esta desocupada no es visible" style="text;html=1;strokeColor=none;fillColor=none;align=center;verticalAlign=middle;whiteSpace=wrap;rounded=0;" vertex="1" parent="1">
                    <mxGeometry x="475" y="350" width="110" height="60" as="geometry"/>
                </mxCell>
                <mxCell id="27" value="Todos los metres pueden acceder a todos los chats" style="text;html=1;strokeColor=none;fillColor=none;align=center;verticalAlign=middle;whiteSpace=wrap;rounded=0;" vertex="1" parent="1">
                    <mxGeometry x="364" y="510" width="116" height="40" as="geometry"/>
                </mxCell>
            </root>
        </mxGraphModel>
    </diagram>
</mxfile>